<?xml version="1.0" encoding="utf-8" ?>
<svg xmlns="http://www.w3.org/2000/svg" xmlns:xlink="http://www.w3.org/1999/xlink" width="900" height="500">
	<path fill="#4768A1" d="M265.509 31.3195Q266.567 31.2596 267.626 31.2452L521.773 31.2124L600.749 31.2062L624.279 31.2131C628.712 31.2192 633.487 30.9421 637.877 31.5386C644.758 32.4735 651.735 36.147 656.654 40.9867C661.275 45.5329 664.763 51.476 665.957 57.8778C667.691 67.1732 667.096 77.0538 666.979 86.4778Q666.798 100.746 666.774 115.015L666.887 230.286C666.932 234.749 666.596 239.205 666.625 243.671L666.608 377.035L666.671 418.272C666.683 425.84 667.326 434.108 666.075 441.557C664.931 448.369 661.439 454.435 656.629 459.314C652.295 463.71 646.828 467.048 640.783 468.449C629.626 471.036 613.264 469.686 601.518 469.682L535.249 469.772C536.048 467.186 535.693 436.415 535.715 431.356L535.926 339.486C535.891 325.733 536.059 311.935 535.717 298.189C535.68 296.705 535.615 295.479 535.032 294.09Q563.919 294.491 592.804 293.985C593.092 293.613 593.305 293.251 593.46 292.802C595.415 287.134 596.177 265.062 596.786 257.768C597.453 249.772 598.728 241.669 598.905 233.648C598.933 232.405 598.892 231.432 598.336 230.293C577.442 229.437 556.339 230.112 535.425 230.208C536.869 225.661 536.201 220.042 536.092 215.303C535.842 204.495 534.216 178.314 538.128 169.199C540.607 163.421 545.639 160.913 551.163 158.735C566.695 156.875 582.599 158.092 598.207 158.008C598.457 157.63 598.634 157.267 598.741 156.821C599.819 152.324 599.193 113.378 598.695 107.856C598.589 106.684 598.387 105.742 597.821 104.705C593.509 103.696 588.642 103.485 584.235 103.031C574.241 102.002 564.381 101.046 554.325 101.053C529.956 101.069 505.168 107.168 487.543 124.909C467.475 145.109 466.815 168.855 466.835 195.526L466.906 230.194Q437.9 229.834 408.893 230.12Q408.687 262.016 408.824 293.912L467.553 293.962L467.509 469.119C451.403 468.797 435.222 469.161 419.109 469.173L316.938 469.112Q302.667 469.005 288.398 469.224C280.012 469.377 271.403 469.986 263.069 468.904C256.501 468.052 251.029 465.914 245.727 461.922C238.925 456.801 235.072 450.217 233.917 441.813C232.933 434.647 233.266 427.23 233.27 420.012L233.282 389.119L233.292 283.26L233.219 140.861L233.077 91.9032C233.047 82.5201 232.599 72.8836 233.271 63.5255C233.747 56.8854 235.819 50.5193 239.909 45.1968C246.042 37.2148 255.696 32.6333 265.509 31.3195Z"/>
</svg>
