<?xml version="1.0" encoding="utf-8" ?>
<svg xmlns="http://www.w3.org/2000/svg" xmlns:xlink="http://www.w3.org/1999/xlink" width="2048" height="2048">
	<defs>
		<linearGradient id="gradient_0" gradientUnits="userSpaceOnUse" x1="980.96149" y1="465.94604" x2="754.73462" y2="-124.04736">
			<stop offset="0" stop-color="#A72AC0"/>
			<stop offset="1" stop-color="#3F63D0"/>
		</linearGradient>
	</defs>
	<path fill="url(#gradient_0)" d="M17.1967 498.544C16.6307 486.321 17.5797 473.673 18.1673 461.447C21.4553 393.041 35.4701 324.427 64.9801 262.353Q67.2574 257.646 69.65 252.997Q72.0425 248.348 74.5488 243.759Q77.0552 239.17 79.6737 234.645Q82.2923 230.119 85.0215 225.659Q87.7508 221.199 90.589 216.808Q93.4272 212.417 96.3727 208.097Q99.3183 203.777 102.369 199.53Q105.42 195.284 108.575 191.115Q111.73 186.945 114.986 182.854Q118.242 178.763 121.599 174.754Q124.955 170.744 128.409 166.819Q131.862 162.893 135.412 159.054Q138.961 155.215 142.604 151.464Q146.247 147.713 149.982 144.054Q153.716 140.394 157.539 136.827Q161.362 133.26 165.272 129.789Q169.182 126.317 173.176 122.943Q177.171 119.569 181.247 116.294Q185.323 113.019 189.478 109.846Q193.634 106.673 197.866 103.603Q202.099 100.532 206.406 97.5675Q210.712 94.6025 215.091 91.7446Q219.469 88.8866 223.917 86.1373Q228.364 83.388 232.878 80.7491Q237.392 78.1102 241.969 75.5832Q246.547 73.0563 251.185 70.6428Q255.824 68.2294 260.52 65.9309Q265.216 63.6324 269.968 61.4502Q274.719 59.2681 279.523 57.2036Q284.327 55.1392 289.18 53.1937Q294.034 51.2481 298.933 49.4227Q303.833 47.5973 308.776 45.8931C355.993 29.2071 407.033 21.1909 456.857 17.764C485.392 15.8014 514.476 16.1365 543.083 16.0643L661.383 15.7887L1063.4 15.2799L1416.23 15.646C1482.23 16.0277 1551.2 13.7495 1616.76 20.3282C1674.96 26.1676 1732.33 39.3018 1785.27 64.6213C1879.95 109.897 1962.13 194.324 1997.33 294.162C1990.33 287.266 1980.83 259.375 1974.96 248.527Q1972.43 243.77 1969.79 239.079Q1967.14 234.389 1964.37 229.768Q1961.6 225.148 1958.72 220.6Q1955.83 216.053 1952.83 211.581Q1949.83 207.11 1946.71 202.717Q1943.59 198.325 1940.36 194.014Q1937.14 189.704 1933.8 185.478Q1930.46 181.252 1927.01 177.114Q1923.56 172.976 1920.01 168.928Q1916.46 164.88 1912.8 160.926Q1909.14 156.971 1905.39 153.112Q1901.63 149.253 1897.77 145.493Q1893.92 141.732 1889.96 138.073Q1886.01 134.413 1881.97 130.856Q1877.92 127.3 1873.79 123.849Q1869.65 120.398 1865.43 117.055C1855.95 109.472 1845.22 100.504 1834.48 94.9185C1815.4 103.334 1796.96 115.98 1778.68 126.186Q1726.64 155.222 1673.5 182.19Q1594.05 222.206 1512.97 258.803C1486.67 270.696 1459.53 281.268 1433.59 293.857C1433.91 293.904 1434.22 293.944 1434.53 293.997C1442.6 295.366 1450.24 298.454 1458.34 299.643C1469.75 301.318 1481.71 305.936 1492.66 309.611C1549.04 328.529 1597.6 357.354 1640.46 398.741C1647.09 405.142 1654.82 411.655 1660.13 419.215C1660.46 419.673 1660.75 420.151 1661.07 420.604C1662.51 422.574 1666.66 425.007 1666.7 427.167L1665.42 427.406C1648.69 409.373 1632.17 392.087 1613.07 376.508C1517.02 298.159 1405.96 286.36 1286.67 281.854C1178.88 277.783 1070.6 279.038 962.74 279.247Q862.784 278.761 762.872 281.802C705.059 283.955 647.51 286.623 591.163 300.864C525.835 317.375 466.005 346.732 416.355 392.651Q399.186 408.307 384.068 425.952C377.101 434.226 370.752 443.057 363.651 451.199C363.192 451.418 362.724 451.62 362.273 451.857C358.322 453.938 357.463 459.581 353.874 461.705C345.441 466.696 310.908 470.896 298.768 473.999L122.686 520.71C88.1331 529.779 53.505 536.179 19.796 548.455C15.9892 532.329 20.4308 514.774 17.1967 498.544Z"/>
	<path fill="#D13D91" d="M1834.48 94.9185C1845.22 100.504 1855.95 109.472 1865.43 117.055Q1869.65 120.398 1873.79 123.849Q1877.92 127.3 1881.97 130.856Q1886.01 134.413 1889.96 138.073Q1893.92 141.732 1897.77 145.493Q1901.63 149.253 1905.39 153.112Q1909.14 156.971 1912.8 160.926Q1916.46 164.88 1920.01 168.928Q1923.56 172.976 1927.01 177.114Q1930.46 181.252 1933.8 185.478Q1937.14 189.704 1940.36 194.014Q1943.59 198.325 1946.71 202.717Q1949.83 207.11 1952.83 211.581Q1955.83 216.053 1958.72 220.6Q1961.6 225.148 1964.37 229.768Q1967.14 234.389 1969.79 239.079Q1972.43 243.77 1974.96 248.527C1980.83 259.375 1990.33 287.266 1997.33 294.162C2017.08 334.35 2026.79 401.39 2030.25 445.826C2032.25 471.576 2031.75 497.921 2031.88 523.757L2032.25 642.583L2032.88 1015.01L2032.3 1400.31L2031.9 1520.4C2031.81 1546.22 2032.38 1572.55 2030.51 1598.3C2027.21 1643.85 2019.5 1689.96 2004.79 1733.28Q2003.68 1736.6 2002.51 1739.9Q2001.34 1743.2 2000.12 1746.49Q1998.89 1749.77 1997.62 1753.03Q1996.34 1756.29 1995.02 1759.53Q1993.69 1762.78 1992.31 1765.99Q1990.93 1769.21 1989.5 1772.41Q1988.06 1775.61 1986.58 1778.78Q1985.1 1781.95 1983.56 1785.1Q1982.03 1788.25 1980.44 1791.37Q1978.85 1794.49 1977.22 1797.59Q1975.58 1800.69 1973.89 1803.76Q1972.21 1806.83 1970.47 1809.87Q1968.73 1812.91 1966.95 1815.92Q1965.16 1818.94 1963.33 1821.92Q1961.5 1824.9 1959.61 1827.86Q1957.73 1830.81 1955.8 1833.74Q1953.87 1836.66 1951.9 1839.55Q1949.92 1842.44 1947.89 1845.3Q1945.87 1848.16 1943.8 1850.98Q1941.73 1853.81 1939.62 1856.6Q1937.5 1859.39 1935.34 1862.15Q1933.18 1864.91 1930.98 1867.63Q1928.77 1870.35 1926.52 1873.04Q1924.27 1875.72 1921.98 1878.37Q1919.69 1881.02 1917.36 1883.63Q1915.02 1886.24 1912.65 1888.81Q1910.27 1891.39 1907.85 1893.92Q1905.43 1896.45 1902.97 1898.95Q1900.51 1901.44 1898.02 1903.9Q1895.52 1906.35 1892.98 1908.76Q1890.44 1911.18 1887.86 1913.55Q1885.29 1915.92 1882.67 1918.25C1873.02 1926.82 1861.48 1937.98 1850.11 1943.73C1841.12 1953.35 1824.31 1961.71 1812.8 1968.24C1732.6 2013.74 1644.66 2027.52 1553.56 2030.74C1524.82 2031.76 1495.91 2031.46 1467.15 2031.64L1294.17 2032.05L1180.75 2032.14C1161.23 2032.15 1141.19 2033.06 1121.72 2031.92C1132.18 2029 1150.52 2030.9 1161.75 2030.9C1205.49 2030.92 1249.39 2031.82 1293.1 2030.53C1302.85 2030.24 1312.49 2031.83 1322.15 2030.11C1322.94 2019.48 1318.6 2006.14 1316.39 1995.61C1299.68 1916.01 1270.11 1841.35 1233.63 1768.94C1223.64 1769.15 1211.5 1770.37 1201.78 1768.17C1269.96 1767.32 1341.46 1767.02 1408.9 1756.7C1532.7 1737.76 1617.78 1686.64 1691.75 1586.06C1694.12 1578.4 1702.96 1567.1 1707.37 1559.77C1710.78 1554.1 1713.59 1548.21 1716.37 1542.21C1739.99 1491.18 1753.82 1438.54 1760.08 1382.69C1764.24 1345.65 1765.34 1308.23 1766.59 1271C1769.29 1190.36 1768.68 1109.44 1768.71 1028.76C1768.74 945.735 1769.48 862.433 1766.69 779.448C1764.62 717.619 1762.54 655.899 1748.09 595.459C1732.77 531.366 1706.36 478.755 1665.42 427.406L1666.7 427.167C1666.66 425.007 1662.51 422.574 1661.07 420.604C1660.75 420.151 1660.46 419.673 1660.13 419.215C1654.82 411.655 1647.09 405.142 1640.46 398.741C1597.6 357.354 1549.04 328.529 1492.66 309.611C1481.71 305.936 1469.75 301.318 1458.34 299.643C1450.24 298.454 1442.6 295.366 1434.53 293.997C1434.22 293.944 1433.91 293.904 1433.59 293.857C1459.53 281.268 1486.67 270.696 1512.97 258.803Q1594.05 222.206 1673.5 182.19Q1726.64 155.222 1778.68 126.186C1796.96 115.98 1815.4 103.334 1834.48 94.9185Z"/>
	<defs>
		<linearGradient id="gradient_1" gradientUnits="userSpaceOnUse" x1="1283.0225" y1="1934.197" x2="1541.0443" y2="1857.6287">
			<stop offset="0" stop-color="#FF6C3E"/>
			<stop offset="1" stop-color="#FB4B46"/>
		</linearGradient>
	</defs>
	<path fill="url(#gradient_1)" d="M1691.75 1586.06C1691.71 1586.47 1691.72 1586.88 1691.64 1587.28C1689.88 1595.63 1665.57 1624.2 1658.56 1630.6C1649.93 1638.48 1642.49 1647.64 1633.96 1655.64Q1625.73 1663.27 1617.06 1670.41Q1608.4 1677.54 1599.33 1684.16Q1590.26 1690.77 1580.81 1696.84Q1571.37 1702.91 1561.59 1708.42C1548 1716.04 1532.98 1720.87 1519.63 1728.42C1513.41 1731.93 1505.96 1732.62 1499.92 1736.45C1504.91 1751.57 1511.29 1766.31 1516.78 1781.27Q1529.59 1816.84 1540.37 1853.08C1548.49 1881.15 1556.31 1909.72 1562.1 1938.36C1566.18 1958.55 1570.12 1979.02 1573.49 1999.34C1575.01 2008.47 1575.73 2017.8 1577.51 2026.87L1578.01 2025.98L1578.05 2027.83C1585.91 2029.14 1594.57 2026.41 1602.52 2025.85C1668.33 2021.2 1737.49 2007.31 1795.97 1975.46C1805.73 1970.14 1815.54 1964.79 1824.9 1958.8C1831.91 1954.31 1839.78 1947.57 1847.26 1944.24C1848.25 1943.79 1849.05 1943.6 1850.11 1943.73C1841.12 1953.35 1824.31 1961.71 1812.8 1968.24C1732.6 2013.74 1644.66 2027.52 1553.56 2030.74C1524.82 2031.76 1495.91 2031.46 1467.15 2031.64L1294.17 2032.05L1180.75 2032.14C1161.23 2032.15 1141.19 2033.06 1121.72 2031.92C1132.18 2029 1150.52 2030.9 1161.75 2030.9C1205.49 2030.92 1249.39 2031.82 1293.1 2030.53C1302.85 2030.24 1312.49 2031.83 1322.15 2030.11C1322.94 2019.48 1318.6 2006.14 1316.39 1995.61C1299.68 1916.01 1270.11 1841.35 1233.63 1768.94C1223.64 1769.15 1211.5 1770.37 1201.78 1768.17C1269.96 1767.32 1341.46 1767.02 1408.9 1756.7C1532.7 1737.76 1617.78 1686.64 1691.75 1586.06Z"/>
	<path fill="#FFFEFE" d="M363.651 451.199C370.752 443.057 377.101 434.226 384.068 425.952Q399.186 408.307 416.355 392.651C466.005 346.732 525.835 317.375 591.163 300.864C647.51 286.623 705.059 283.955 762.872 281.802Q862.784 278.761 962.74 279.247C1070.6 279.038 1178.88 277.783 1286.67 281.854C1405.96 286.36 1517.02 298.159 1613.07 376.508C1632.17 392.087 1648.69 409.373 1665.42 427.406C1706.36 478.755 1732.77 531.366 1748.09 595.459C1762.54 655.899 1764.62 717.619 1766.69 779.448C1769.48 862.433 1768.74 945.735 1768.71 1028.76C1768.68 1109.44 1769.29 1190.36 1766.59 1271C1765.34 1308.23 1764.24 1345.65 1760.08 1382.69C1753.82 1438.54 1739.99 1491.18 1716.37 1542.21C1713.59 1548.21 1710.78 1554.1 1707.37 1559.77C1702.96 1567.1 1694.12 1578.4 1691.75 1586.06C1617.78 1686.64 1532.7 1737.76 1408.9 1756.7C1341.46 1767.02 1269.96 1767.32 1201.78 1768.17C1211.5 1770.37 1223.64 1769.15 1233.63 1768.94C1270.11 1841.35 1299.68 1916.01 1316.39 1995.61C1318.6 2006.14 1322.94 2019.48 1322.15 2030.11C1312.49 2031.83 1302.85 2030.24 1293.1 2030.53C1249.39 2031.82 1205.49 2030.92 1161.75 2030.9C1150.52 2030.9 1132.18 2029 1121.72 2031.92C1082.65 2033.12 1043.28 2032.14 1004.19 2032.14L781.03 2032L592.428 2031.36C509.213 2030.9 425.69 2032.06 344.342 2011.62Q340.585 2010.67 336.846 2009.66Q333.107 2008.64 329.387 2007.55Q325.666 2006.47 321.967 2005.32Q318.267 2004.17 314.589 2002.95Q310.91 2001.73 307.255 2000.44Q303.599 1999.16 299.968 1997.81Q296.336 1996.46 292.73 1995.04Q289.123 1993.62 285.543 1992.14Q281.963 1990.66 278.411 1989.11Q274.858 1987.56 271.334 1985.95Q267.81 1984.34 264.316 1982.66Q260.822 1980.99 257.359 1979.25Q253.896 1977.51 250.465 1975.71Q247.034 1973.91 243.637 1972.05Q240.239 1970.18 236.876 1968.26Q233.513 1966.33 230.185 1964.35Q226.857 1962.36 223.566 1960.32Q220.275 1958.27 217.022 1956.17Q213.768 1954.06 210.554 1951.9Q207.339 1949.74 204.164 1947.52Q200.989 1945.29 197.855 1943.01Q194.722 1940.74 191.629 1938.4Q188.537 1936.07 185.488 1933.67Q182.439 1931.28 179.434 1928.84Q176.429 1926.39 173.469 1923.89Q170.508 1921.39 167.594 1918.84Q164.68 1916.28 161.812 1913.68Q158.945 1911.07 156.125 1908.41Q153.305 1905.75 150.534 1903.05Q147.763 1900.34 145.042 1897.58Q142.321 1894.82 139.65 1892.01Q136.979 1889.21 134.36 1886.35C122.273 1873.2 109.553 1858.82 100.378 1843.47C100.136 1843.28 99.8581 1843.14 99.6526 1842.92C88.5435 1830.86 78.154 1809.6 70.5687 1794.76C16.082 1688.15 16.3643 1586.26 16.081 1469.63L15.8345 1301.83L15.7315 1139.88C15.7151 1111.83 14.4593 1083.21 15.9542 1055.23C14.9382 1029.32 15.6213 1003.13 15.5955 977.182L15.4833 833.583C15.4074 721.997 14.0417 610.074 17.1967 498.544C20.4308 514.774 15.9892 532.329 19.796 548.455C53.505 536.179 88.1331 529.779 122.686 520.71L298.768 473.999C310.908 470.896 345.441 466.696 353.874 461.705C357.463 459.581 358.322 453.938 362.273 451.857C362.724 451.62 363.192 451.418 363.651 451.199Z"/>
	<defs>
		<linearGradient id="gradient_2" gradientUnits="userSpaceOnUse" x1="859.70905" y1="1605.4434" x2="625.88391" y2="2139.1104">
			<stop offset="0" stop-color="#FF7B45"/>
			<stop offset="1" stop-color="#FFD954"/>
		</linearGradient>
	</defs>
	<path fill="url(#gradient_2)" d="M100.378 1843.47C102.68 1844.07 103.637 1845.64 105.265 1847.32C110.874 1840.32 115.47 1832.46 120.634 1825.12C126.794 1816.37 133.605 1807.93 140.394 1799.66Q147.519 1790.93 154.993 1782.5Q162.467 1774.07 170.277 1765.95Q178.087 1757.83 186.221 1750.03Q194.355 1742.23 202.799 1734.77Q211.242 1727.31 219.982 1720.2Q228.722 1713.09 237.744 1706.34Q246.765 1699.59 256.054 1693.21Q265.342 1686.83 274.882 1680.84C285.743 1674.16 296.823 1667.24 308.052 1661.23C313.677 1658.23 320.039 1655.93 325.443 1652.81C338.889 1645.04 354.155 1639.96 368.551 1634.25C373.392 1632.33 377.829 1629.59 382.79 1628.07C384.049 1627.68 384.167 1627.2 384.987 1626.21C374.983 1613.26 364.67 1600.91 355.296 1587.46C321.13 1538.45 301.583 1476.97 291.088 1418.66C289.369 1409.11 285.634 1394.68 287.541 1385.27C287.598 1384.99 287.672 1384.72 287.737 1384.44C304.975 1506.59 344.611 1603.58 445.625 1679.8C491.55 1714.45 545.89 1736.91 601.768 1749.67C658.848 1762.69 717.259 1764.62 775.536 1766.63C876.086 1770.08 977.094 1768.96 1077.7 1768.68L1158.2 1768.31C1172.64 1768.21 1187.39 1767.41 1201.78 1768.17C1211.5 1770.37 1223.64 1769.15 1233.63 1768.94C1270.11 1841.35 1299.68 1916.01 1316.39 1995.61C1318.6 2006.14 1322.94 2019.48 1322.15 2030.11C1312.49 2031.83 1302.85 2030.24 1293.1 2030.53C1249.39 2031.82 1205.49 2030.92 1161.75 2030.9C1150.52 2030.9 1132.18 2029 1121.72 2031.92C1082.65 2033.12 1043.28 2032.14 1004.19 2032.14L781.03 2032L592.428 2031.36C509.213 2030.9 425.69 2032.06 344.342 2011.62Q340.585 2010.67 336.846 2009.66Q333.107 2008.64 329.387 2007.55Q325.666 2006.47 321.967 2005.32Q318.267 2004.17 314.589 2002.95Q310.91 2001.73 307.255 2000.44Q303.599 1999.16 299.968 1997.81Q296.336 1996.46 292.73 1995.04Q289.123 1993.62 285.543 1992.14Q281.963 1990.66 278.411 1989.11Q274.858 1987.56 271.334 1985.95Q267.81 1984.34 264.316 1982.66Q260.822 1980.99 257.359 1979.25Q253.896 1977.51 250.465 1975.71Q247.034 1973.91 243.637 1972.05Q240.239 1970.18 236.876 1968.26Q233.513 1966.33 230.185 1964.35Q226.857 1962.36 223.566 1960.32Q220.275 1958.27 217.022 1956.17Q213.768 1954.06 210.554 1951.9Q207.339 1949.74 204.164 1947.52Q200.989 1945.29 197.855 1943.01Q194.722 1940.74 191.629 1938.4Q188.537 1936.07 185.488 1933.67Q182.439 1931.28 179.434 1928.84Q176.429 1926.39 173.469 1923.89Q170.508 1921.39 167.594 1918.84Q164.68 1916.28 161.812 1913.68Q158.945 1911.07 156.125 1908.41Q153.305 1905.75 150.534 1903.05Q147.763 1900.34 145.042 1897.58Q142.321 1894.82 139.65 1892.01Q136.979 1889.21 134.36 1886.35C122.273 1873.2 109.553 1858.82 100.378 1843.47Z"/>
	<path fill="#F6624F" d="M17.1967 498.544C20.4308 514.774 15.9892 532.329 19.796 548.455C53.505 536.179 88.1331 529.779 122.686 520.71L298.768 473.999C310.908 470.896 345.441 466.696 353.874 461.705C357.463 459.581 358.322 453.938 362.273 451.857C362.724 451.62 363.192 451.418 363.651 451.199C301.487 544.212 287.481 628.437 282.788 738.142Q280.136 797.427 279.824 856.771C279.592 885.177 281.053 916.322 279.048 944.397C280.882 974.233 279.154 1005.05 279.193 1034.99Q279.132 1130.75 280.229 1226.5Q281.363 1283.14 284.13 1339.73C284.841 1353.33 288.409 1371.55 287.737 1384.44C287.672 1384.72 287.598 1384.99 287.541 1385.27C285.634 1394.68 289.369 1409.11 291.088 1418.66C301.583 1476.97 321.13 1538.45 355.296 1587.46C364.67 1600.91 374.983 1613.26 384.987 1626.21C384.167 1627.2 384.049 1627.68 382.79 1628.07C377.829 1629.59 373.392 1632.33 368.551 1634.25C354.155 1639.96 338.889 1645.04 325.443 1652.81C320.039 1655.93 313.677 1658.23 308.052 1661.23C296.823 1667.24 285.743 1674.16 274.882 1680.84Q265.342 1686.83 256.054 1693.21Q246.765 1699.59 237.744 1706.34Q228.722 1713.09 219.982 1720.2Q211.242 1727.31 202.799 1734.77Q194.355 1742.23 186.221 1750.03Q178.087 1757.83 170.277 1765.95Q162.467 1774.07 154.993 1782.5Q147.519 1790.93 140.394 1799.66C133.605 1807.93 126.794 1816.37 120.634 1825.12C115.47 1832.46 110.874 1840.32 105.265 1847.32C103.637 1845.64 102.68 1844.07 100.378 1843.47C100.136 1843.28 99.8581 1843.14 99.6526 1842.92C88.5435 1830.86 78.154 1809.6 70.5687 1794.76C16.082 1688.15 16.3643 1586.26 16.081 1469.63L15.8345 1301.83L15.7315 1139.88C15.7151 1111.83 14.4593 1083.21 15.9542 1055.23C14.9382 1029.32 15.6213 1003.13 15.5955 977.182L15.4833 833.583C15.4074 721.997 14.0417 610.074 17.1967 498.544Z"/>
	<defs>
		<linearGradient id="gradient_3" gradientUnits="userSpaceOnUse" x1="219.92592" y1="789.85046" x2="148.60805" y2="512.336">
			<stop offset="0" stop-color="#CA3A8D"/>
			<stop offset="1" stop-color="#873DBF"/>
		</linearGradient>
	</defs>
	<path fill="url(#gradient_3)" d="M17.1967 498.544C20.4308 514.774 15.9892 532.329 19.796 548.455C53.505 536.179 88.1331 529.779 122.686 520.71L298.768 473.999C310.908 470.896 345.441 466.696 353.874 461.705C357.463 459.581 358.322 453.938 362.273 451.857C362.724 451.62 363.192 451.418 363.651 451.199C301.487 544.212 287.481 628.437 282.788 738.142Q280.136 797.427 279.824 856.771C279.592 885.177 281.053 916.322 279.048 944.397C276.186 933.317 277.908 918.353 277.888 906.83C277.824 870.851 278.549 834.941 279.018 798.976C279.122 790.978 280.132 782.999 280 775.004C267.133 776.868 254.307 780.621 241.645 783.639C222.891 788.109 204.041 792.288 185.533 797.708C174.343 800.984 163.325 805.081 152.025 807.926L70.0006 827.709C51.6032 832.114 34.5547 835.315 17.0062 842.654L17.0984 995.846C17.0811 1007.83 19.0093 1046.04 15.9542 1055.23C14.9382 1029.32 15.6213 1003.13 15.5955 977.182L15.4833 833.583C15.4074 721.997 14.0417 610.074 17.1967 498.544Z"/>
	<defs>
		<linearGradient id="gradient_4" gradientUnits="userSpaceOnUse" x1="1033.3741" y1="996.9859" x2="1007.7324" y2="406.28793">
			<stop offset="0" stop-color="#EE456F"/>
			<stop offset="1" stop-color="#A633B8"/>
		</linearGradient>
	</defs>
	<path fill="url(#gradient_4)" d="M808.694 414.395C907.993 412.006 1007.54 413.378 1106.86 413.631Q1195.95 413.089 1285 416.006C1331.36 417.765 1377.86 419.519 1423.1 430.675C1468.35 441.831 1510.01 461.775 1543.9 494.254C1614.56 561.955 1626.98 647.9 1630.94 740.593Q1633.04 787.229 1633.83 833.905C1633.95 840.516 1634.25 847.334 1633.81 853.926C1630.68 865.302 1633.1 922.899 1633.17 938.73C1633.21 949.198 1632.27 959.443 1633 969.893L1631.27 969.876L1632.62 971.782L1632.04 969.869L1631.63 970.953Q1615.94 954.829 1599.79 939.159Q1583.65 923.489 1567.06 908.285Q1550.48 893.082 1533.46 878.357Q1516.45 863.633 1499.03 849.399Q1481.6 835.166 1463.78 821.434Q1445.95 807.703 1427.74 794.486Q1409.54 781.269 1390.96 768.576Q1372.38 755.883 1353.45 743.725C1333.29 730.69 1308.03 712.821 1286.45 703.463C1276.77 699.266 1256.67 682.856 1246.94 682.331C1246.57 682.311 1246.21 682.38 1245.85 682.404L1246.31 682.112C1245.49 682.57 1245.42 682.654 1244.38 682.988C1236.1 685.656 1214.83 686.437 1206.91 682.427C1205.63 681.779 1204.4 681.058 1203.1 680.428C1201.55 681.045 1200.92 680.984 1200.15 682.467L1203.08 685.718C1105.2 637.883 1004.02 626.434 899.809 662.198C864.07 674.464 831.816 691.917 800.758 713.286C798.61 712.246 796.841 712.124 794.521 711.977C794.17 711.954 793.82 711.913 793.469 711.893C778.843 711.046 763.586 720.722 748.914 721.524C740.055 722.008 728.63 717.532 720.368 720.842C709.584 725.161 697.296 725.916 686.242 729.473C677.4 732.317 667.913 728.209 659.466 730.269C654.911 731.38 650.878 733.465 646.076 734.375C638.303 735.848 630.422 735.987 622.667 737.288L524.902 753.993C513.294 755.988 502.019 759.701 490.412 761.772C478.109 763.967 422.437 769.468 417.098 777.691C416.142 788.783 417.981 839.467 414.185 845.382L414.164 844.063C413.812 815.257 415.113 786.181 416.264 757.393C419.003 688.897 423.283 621.169 454.875 558.899C460.086 548.628 466.265 536.181 474.383 527.9C479.517 519.602 486.559 512.005 493.264 504.953C577.99 415.837 694.772 417.132 808.694 414.395Z"/>
	<path fill="#923BB9" d="M474.383 527.9C479.517 519.602 486.559 512.005 493.264 504.953C577.99 415.837 694.772 417.132 808.694 414.395L808.232 416.095C789.672 418.025 770.746 416.744 752.002 418.73C751.093 420.198 751.344 420.355 751.433 422.001C751.086 421.782 748.376 419.942 748.067 420.064C744.104 421.624 733.186 427.134 729.24 425.358C728.2 424.89 727.439 424.303 726.522 423.663C720.873 424.394 715.239 427.038 709.799 428.807C702.717 431.11 676.147 438.566 670.217 438.819C665.957 439.001 661.65 439.919 657.443 440.615C656.525 439.195 656.194 438.352 655.72 436.77C652.226 437.469 649.645 441.494 647.479 444.127L640.77 442.655C633.706 441.069 626.079 447.636 619.268 449.201C615.355 450.099 611.133 450.144 607.146 450.836C590.116 453.791 551.842 459.936 538.412 468.741C537.262 469.495 536.205 470.361 535.126 471.209C521.946 481.57 507.595 491.32 496.495 504.03C491.439 509.819 480.656 525.498 474.383 527.9Z"/>
	<path fill="#FFFEFE" d="M1414.69 537.387Q1416.74 537.221 1418.79 537.149Q1420.84 537.078 1422.9 537.101Q1424.95 537.125 1427 537.244Q1429.06 537.362 1431.1 537.576Q1433.14 537.789 1435.17 538.097Q1437.21 538.405 1439.22 538.806Q1441.24 539.207 1443.23 539.701Q1445.23 540.196 1447.19 540.781Q1449.16 541.367 1451.1 542.044Q1453.04 542.72 1454.95 543.485Q1456.86 544.25 1458.73 545.103Q1460.6 545.956 1462.42 546.894Q1464.25 547.832 1466.04 548.854Q1467.82 549.876 1469.55 550.979Q1471.28 552.082 1472.97 553.264Q1474.65 554.446 1476.27 555.705Q1477.15 556.392 1478.01 557.1Q1478.87 557.808 1479.72 558.538Q1480.56 559.267 1481.39 560.018Q1482.22 560.768 1483.02 561.539Q1483.83 562.309 1484.62 563.1Q1485.41 563.89 1486.18 564.7Q1486.94 565.509 1487.69 566.338Q1488.44 567.166 1489.17 568.013Q1489.89 568.86 1490.6 569.724Q1491.31 570.589 1491.99 571.471Q1492.67 572.352 1493.34 573.251Q1494 574.149 1494.64 575.064Q1495.28 575.979 1495.89 576.909Q1496.51 577.839 1497.1 578.784Q1497.7 579.73 1498.27 580.689Q1498.84 581.649 1499.38 582.623Q1499.93 583.596 1500.45 584.583Q1500.97 585.57 1501.47 586.569Q1501.97 587.569 1502.44 588.58Q1502.91 589.591 1503.36 590.614Q1503.8 591.637 1504.22 592.671Q1504.64 593.704 1505.04 594.748Q1505.44 595.792 1505.8 596.845Q1506.17 597.898 1506.52 598.96Q1506.86 600.022 1507.18 601.093Q1507.49 602.163 1507.78 603.241Q1508.07 604.318 1508.34 605.403Q1508.6 606.488 1508.84 607.578Q1509.07 608.669 1509.28 609.766Q1509.49 610.862 1509.67 611.963Q1509.85 613.064 1510.01 614.17Q1510.16 615.275 1510.29 616.384Q1510.41 617.486 1510.51 618.592Q1510.61 619.697 1510.68 620.804Q1510.75 621.911 1510.79 623.02Q1510.83 624.129 1510.85 625.238Q1510.86 626.348 1510.85 627.457Q1510.84 628.567 1510.8 629.675Q1510.76 630.784 1510.69 631.892Q1510.62 632.999 1510.53 634.104Q1510.43 635.21 1510.31 636.312Q1510.19 637.415 1510.04 638.515Q1509.89 639.614 1509.71 640.709Q1509.54 641.805 1509.33 642.895Q1509.13 643.986 1508.9 645.071Q1508.67 646.157 1508.41 647.236Q1508.15 648.315 1507.87 649.388Q1507.59 650.46 1507.28 651.526Q1506.97 652.591 1506.63 653.648Q1506.29 654.705 1505.93 655.754Q1505.57 656.802 1505.18 657.842Q1504.79 658.881 1504.38 659.91Q1503.96 660.94 1503.52 661.959Q1503.08 662.977 1502.62 663.985Q1502.16 664.993 1501.67 665.989Q1501.18 666.984 1500.66 667.968Q1500.15 668.951 1499.61 669.922Q1499.08 670.892 1498.51 671.849Q1497.95 672.806 1497.37 673.749Q1496.78 674.691 1496.17 675.619Q1495.57 676.547 1494.94 677.46Q1494.3 678.373 1493.65 679.269Q1493 680.166 1492.32 681.046Q1491.65 681.927 1490.95 682.79C1475.12 702.371 1453.03 712.97 1428.25 715.521C1406.61 717.733 1383.56 710.31 1366.57 696.947Q1365.69 696.256 1364.83 695.543Q1363.97 694.83 1363.12 694.096Q1362.28 693.362 1361.45 692.607Q1360.63 691.852 1359.82 691.077Q1359.01 690.302 1358.22 689.507Q1357.44 688.712 1356.67 687.897Q1355.9 687.083 1355.16 686.25Q1354.41 685.416 1353.68 684.565Q1352.96 683.713 1352.25 682.844Q1351.55 681.974 1350.87 681.088Q1350.19 680.201 1349.53 679.297Q1348.87 678.394 1348.23 677.474Q1347.59 676.555 1346.98 675.62Q1346.36 674.685 1345.77 673.734Q1345.18 672.784 1344.61 671.82Q1344.05 670.855 1343.5 669.877Q1342.96 668.898 1342.44 667.907Q1341.92 666.915 1341.43 665.911Q1340.94 664.907 1340.47 663.891Q1340 662.874 1339.56 661.847Q1339.12 660.819 1338.7 659.781Q1338.28 658.743 1337.89 657.695Q1337.5 656.646 1337.14 655.589Q1336.77 654.531 1336.43 653.464Q1336.09 652.398 1335.78 651.323Q1335.47 650.249 1335.19 649.167Q1334.9 648.085 1334.64 646.996Q1334.39 645.907 1334.16 644.812Q1333.92 643.718 1333.72 642.617Q1333.52 641.517 1333.34 640.412Q1333.17 639.307 1333.02 638.198Q1332.87 637.089 1332.75 635.977Q1332.63 634.886 1332.54 633.792Q1332.45 632.698 1332.39 631.602Q1332.32 630.506 1332.28 629.409Q1332.25 628.312 1332.24 627.215Q1332.23 626.117 1332.24 625.02Q1332.26 623.922 1332.3 622.826Q1332.35 621.729 1332.42 620.633Q1332.49 619.538 1332.58 618.445Q1332.68 617.351 1332.8 616.261Q1332.93 615.17 1333.08 614.083Q1333.23 612.996 1333.41 611.912Q1333.58 610.829 1333.79 609.75Q1333.99 608.672 1334.22 607.599Q1334.45 606.526 1334.71 605.458Q1334.97 604.391 1335.25 603.33Q1335.53 602.27 1335.84 601.216Q1336.15 600.163 1336.48 599.117Q1336.82 598.072 1337.18 597.035Q1337.54 595.998 1337.92 594.97Q1338.31 593.942 1338.72 592.924Q1339.13 591.906 1339.56 590.898Q1340 589.891 1340.46 588.894Q1340.92 587.897 1341.4 586.912Q1341.88 585.927 1342.39 584.954Q1342.9 583.981 1343.43 583.02Q1343.96 582.06 1344.52 581.113Q1345.07 580.166 1345.65 579.233Q1346.23 578.3 1346.83 577.382Q1347.43 576.463 1348.05 575.56Q1348.68 574.656 1349.32 573.768Q1349.97 572.88 1350.64 572.008Q1351.3 571.136 1351.99 570.281C1367.86 550.574 1389.86 540.17 1414.69 537.387Z"/>
	<defs>
		<linearGradient id="gradient_5" gradientUnits="userSpaceOnUse" x1="767.83203" y1="1680.8781" x2="1205.9655" y2="663.18146">
			<stop offset="0" stop-color="#FF7F31"/>
			<stop offset="1" stop-color="#D72987"/>
		</linearGradient>
	</defs>
	<path fill="url(#gradient_5)" d="M800.758 713.286C831.816 691.917 864.07 674.464 899.809 662.198C1004.02 626.434 1105.2 637.883 1203.08 685.718L1200.15 682.467C1200.92 680.984 1201.55 681.045 1203.1 680.428C1204.4 681.058 1205.63 681.779 1206.91 682.427C1214.83 686.437 1236.1 685.656 1244.38 682.988C1245.42 682.654 1245.49 682.57 1246.31 682.112L1245.85 682.404C1246.21 682.38 1246.57 682.311 1246.94 682.331C1256.67 682.856 1276.77 699.266 1286.45 703.463C1308.03 712.821 1333.29 730.69 1353.45 743.725Q1372.38 755.883 1390.96 768.576Q1409.54 781.269 1427.74 794.486Q1445.95 807.703 1463.78 821.434Q1481.6 835.165 1499.03 849.399Q1516.45 863.633 1533.46 878.357Q1550.48 893.082 1567.06 908.285Q1583.65 923.489 1599.79 939.159Q1615.94 954.829 1631.63 970.953L1632.04 969.869L1632.62 971.782L1631.27 969.876L1633 969.893C1632.27 959.443 1633.21 949.198 1633.17 938.73C1633.1 922.899 1630.68 865.302 1633.81 853.926C1635.21 894.764 1634.29 935.913 1634.38 976.795L1633.91 1203.64Q1633.37 1253.99 1631.09 1304.29C1627.12 1395.39 1615.35 1483.75 1546.45 1550.83C1512.66 1583.73 1471.89 1604.3 1426.56 1616.02C1380.45 1627.93 1332.92 1629.67 1285.58 1631.51Q1201.76 1634.37 1117.89 1633.98C1029.12 1634.06 940.275 1634.61 851.514 1633.5Q797.561 1633.04 743.663 1630.57C651.118 1626.57 563.858 1615.2 495.727 1544.85C463.011 1511.06 442.801 1469.9 431.229 1424.66C419.919 1380.44 418.047 1334.75 416.227 1289.37Q413.198 1206.89 413.704 1124.36C413.458 1031.44 412.519 938.295 414.185 845.382C417.981 839.467 416.142 788.783 417.098 777.691C422.437 769.468 478.109 763.967 490.412 761.772C502.019 759.701 513.294 755.988 524.902 753.993L622.667 737.288C630.422 735.987 638.303 735.848 646.076 734.375C650.878 733.465 654.911 731.38 659.466 730.269C667.913 728.209 677.4 732.317 686.242 729.473C697.296 725.916 709.584 725.161 720.368 720.842C728.63 717.532 740.055 722.008 748.914 721.524C763.586 720.722 778.843 711.046 793.469 711.893C793.82 711.913 794.17 711.954 794.521 711.977C796.841 712.124 798.61 712.246 800.758 713.286Z"/>
	<path fill="#FFFEFE" d="M800.758 713.286C831.816 691.917 864.07 674.464 899.809 662.198C1004.02 626.434 1105.2 637.883 1203.08 685.718C1215.55 692.898 1228.24 699.978 1240.04 708.225Q1243.52 710.612 1246.94 713.075Q1250.37 715.538 1253.74 718.075Q1257.11 720.613 1260.42 723.224Q1263.73 725.835 1266.99 728.519Q1270.24 731.202 1273.44 733.956Q1276.63 736.71 1279.77 739.534Q1282.9 742.358 1285.97 745.25Q1289.04 748.141 1292.05 751.1Q1295.06 754.059 1298 757.083Q1300.94 760.107 1303.81 763.195Q1306.69 766.283 1309.49 769.434Q1312.3 772.584 1315.03 775.796Q1317.77 779.007 1320.43 782.278Q1323.1 785.548 1325.69 788.877Q1328.28 792.205 1330.8 795.59Q1333.32 798.975 1335.76 802.414Q1338.2 805.853 1340.57 809.345Q1342.94 812.837 1345.22 816.38Q1347.51 819.923 1349.72 823.516Q1351.94 827.109 1354.07 830.749Q1356.2 834.39 1358.25 838.076Q1360.3 841.762 1362.27 845.493Q1364.24 849.223 1366.13 852.996Q1368.01 856.769 1369.82 860.583Q1371.62 864.396 1373.34 868.248Q1375.06 872.101 1376.69 875.99Q1378.33 879.879 1379.87 883.803Q1381.42 887.727 1382.88 891.684Q1384.35 895.641 1385.72 899.63Q1387.09 903.618 1388.38 907.635Q1389.67 911.653 1390.86 915.698Q1392.06 919.743 1393.17 923.813Q1394.4 928.345 1395.51 932.906Q1396.62 937.467 1397.63 942.054Q1398.63 946.641 1399.52 951.251Q1400.41 955.861 1401.18 960.491Q1401.96 965.122 1402.62 969.77Q1403.28 974.418 1403.83 979.081Q1404.38 983.744 1404.81 988.419Q1405.25 993.094 1405.56 997.778Q1405.88 1002.46 1406.09 1007.15Q1406.29 1011.84 1406.38 1016.54Q1406.47 1021.23 1406.44 1025.93Q1406.42 1030.62 1406.28 1035.31Q1406.13 1040.01 1405.88 1044.7Q1405.62 1049.38 1405.25 1054.06Q1404.88 1058.74 1404.39 1063.41Q1403.91 1068.08 1403.31 1072.74Q1402.71 1077.4 1401.99 1082.04Q1401.28 1086.68 1400.45 1091.3Q1399.62 1095.92 1398.68 1100.52Q1397.74 1105.12 1396.69 1109.7Q1395.64 1114.27 1394.47 1118.82Q1393.31 1123.37 1392.03 1127.89Q1390.75 1132.4 1389.37 1136.89Q1387.98 1141.37 1386.48 1145.82Q1384.99 1150.28 1383.38 1154.69Q1381.78 1159.1 1380.07 1163.47Q1378.35 1167.84 1376.53 1172.17Q1374.72 1176.5 1372.79 1180.78Q1370.87 1185.06 1368.84 1189.3Q1366.81 1193.53 1364.68 1197.72Q1362.54 1201.9 1360.31 1206.03Q1358.07 1210.16 1355.74 1214.23Q1353.4 1218.31 1350.96 1222.33Q1348.51 1226.35 1345.97 1230.31Q1343.43 1234.27 1340.8 1238.16Q1338.16 1242.06 1335.43 1245.89Q1332.7 1249.72 1329.87 1253.48Q1327.05 1257.24 1324.13 1260.93Q1321.21 1264.62 1318.21 1268.24Q1315.2 1271.86 1312.11 1275.4Q1309.01 1278.94 1305.83 1282.41Q1302.65 1285.88 1299.39 1289.26Q1296.12 1292.65 1292.78 1295.96Q1289.43 1299.26 1286 1302.48Q1282.58 1305.71 1279.07 1308.84Q1275.57 1311.98 1271.99 1315.03Q1268.41 1318.08 1264.75 1321.04Q1261.1 1324 1257.37 1326.87Q1253.64 1329.74 1249.85 1332.52Q1246.05 1335.3 1242.19 1337.98Q1238.32 1340.67 1234.4 1343.26Q1230.47 1345.85 1226.48 1348.34Q1222.49 1350.83 1218.44 1353.22Q1214.39 1355.61 1210.28 1357.9Q1206.17 1360.2 1202.01 1362.39Q1197.85 1364.58 1193.63 1366.66Q1189.42 1368.75 1185.15 1370.74Q1180.89 1372.72 1176.57 1374.6Q1172.26 1376.47 1167.9 1378.25Q1163.54 1380.02 1159.14 1381.68Q1154.74 1383.34 1150.3 1384.9Q1145.87 1386.45 1141.39 1387.9Q1136.91 1389.35 1132.4 1390.68Q1127.89 1392.02 1123.35 1393.24Q1118.81 1394.46 1114.24 1395.56Q1109.68 1396.67 1105.08 1397.66Q1100.49 1398.65 1095.88 1399.53Q1091.26 1400.41 1086.62 1401.18Q1081.99 1401.95 1077.34 1402.6Q1072.68 1403.25 1068.01 1403.79Q1063.35 1404.33 1058.67 1404.75Q1053.99 1405.18 1049.3 1405.49Q1044.61 1405.8 1039.91 1405.99Q1035.22 1406.18 1030.52 1406.26Q1025.82 1406.34 1021.12 1406.3Q1016.43 1406.27 1011.73 1406.11Q1007.03 1405.96 1002.34 1405.7Q997.651 1405.43 992.968 1405.05Q988.285 1404.66 983.612 1404.17Q978.94 1403.67 974.281 1403.06Q969.622 1402.45 964.979 1401.72Q960.337 1401 955.713 1400.16Q951.09 1399.32 946.489 1398.37Q941.887 1397.41 937.311 1396.35Q932.734 1395.28 928.185 1394.11Q923.636 1392.93 919.117 1391.64Q914.598 1390.35 910.112 1388.96Q905.626 1387.56 901.176 1386.05Q896.726 1384.54 892.314 1382.92Q887.902 1381.31 883.531 1379.58Q879.16 1377.86 874.833 1376.03Q870.505 1374.2 866.224 1372.26Q861.943 1370.32 857.711 1368.28Q853.479 1366.24 849.298 1364.09Q845.117 1361.95 840.99 1359.7Q836.863 1357.46 832.792 1355.11Q828.713 1352.75 824.694 1350.29Q820.674 1347.84 816.716 1345.28Q812.758 1342.73 808.864 1340.07Q804.97 1337.42 801.143 1334.67Q797.316 1331.93 793.557 1329.09Q789.798 1326.25 786.11 1323.31Q782.423 1320.38 778.808 1317.36Q775.194 1314.34 771.655 1311.23Q768.116 1308.12 764.654 1304.92Q761.193 1301.73 757.811 1298.45Q754.429 1295.17 751.129 1291.8Q747.829 1288.44 744.612 1285Q741.396 1281.56 738.265 1278.04Q735.134 1274.52 732.091 1270.92Q729.048 1267.32 726.094 1263.65Q723.14 1259.98 720.277 1256.24Q717.414 1252.5 714.645 1248.69Q711.875 1244.88 709.2 1241Q706.524 1237.12 703.945 1233.18Q701.366 1229.23 698.885 1225.23Q696.404 1221.22 694.022 1217.16Q691.64 1213.09 689.358 1208.97Q687.077 1204.85 684.898 1200.67Q682.719 1196.5 680.643 1192.27Q678.567 1188.04 676.596 1183.76Q674.624 1179.48 672.759 1175.15Q670.894 1170.83 669.135 1166.46Q667.377 1162.09 665.727 1157.67Q664.076 1153.26 662.535 1148.81Q660.994 1144.36 659.562 1139.87Q658.131 1135.38 656.81 1130.86Q655.49 1126.33 654.281 1121.78Q653.081 1117.24 651.993 1112.67Q650.905 1108.1 649.93 1103.5Q648.954 1098.91 648.092 1094.29Q647.229 1089.67 646.481 1085.03Q645.732 1080.39 645.097 1075.74Q644.462 1071.08 643.942 1066.42Q643.421 1061.75 643.015 1057.07Q642.61 1052.39 642.319 1047.7Q642.028 1043.01 641.853 1038.31Q641.677 1033.62 641.617 1028.92Q641.556 1024.22 641.611 1019.53Q641.666 1014.83 641.836 1010.13Q642.006 1005.44 642.292 1000.75Q642.577 996.06 642.977 991.379Q643.378 986.699 643.893 982.029Q644.408 977.359 645.037 972.704Q645.667 968.048 646.41 963.409Q647.154 958.771 648.011 954.152Q648.868 949.533 649.838 944.936Q650.809 940.339 651.891 935.768Q652.974 931.196 654.168 926.653Q655.363 922.109 656.669 917.596Q657.974 913.084 659.39 908.604Q660.806 904.125 662.332 899.681Q663.857 895.238 665.491 890.833Q667.125 886.429 668.867 882.066Q670.609 877.703 672.457 873.383Q674.305 869.064 676.259 864.792Q678.212 860.519 680.27 856.296Q682.328 852.073 684.489 847.901Q686.65 843.73 688.912 839.613Q691.175 835.495 693.538 831.435C720.851 784.639 757.384 745.558 800.758 713.286Z"/>
	<defs>
		<linearGradient id="gradient_6" gradientUnits="userSpaceOnUse" x1="918.91003" y1="1246.6133" x2="1128.1648" y2="800.35968">
			<stop offset="0" stop-color="#FD5341"/>
			<stop offset="1" stop-color="#E24577"/>
		</linearGradient>
	</defs>
	<path fill="url(#gradient_6)" d="M1005.72 776.421C1006.08 776.37 1006.45 776.303 1006.82 776.27C1068.09 770.843 1132.48 792.38 1179.97 830.871Q1182.36 832.799 1184.7 834.785Q1187.04 836.771 1189.34 838.814Q1191.63 840.858 1193.87 842.957Q1196.11 845.057 1198.3 847.212Q1200.48 849.366 1202.62 851.574Q1204.75 853.782 1206.83 856.042Q1208.91 858.302 1210.93 860.613Q1212.95 862.924 1214.92 865.285Q1216.88 867.645 1218.79 870.053Q1220.69 872.461 1222.54 874.916Q1224.38 877.371 1226.16 879.87Q1227.95 882.37 1229.67 884.913Q1231.39 887.456 1233.05 890.041Q1234.7 892.626 1236.3 895.251Q1237.89 897.876 1239.42 900.54Q1240.94 903.203 1242.41 905.904Q1243.87 908.605 1245.26 911.341Q1246.65 914.077 1247.98 916.847Q1249.3 919.617 1250.56 922.418Q1251.82 925.22 1253 928.052Q1254.19 930.884 1255.31 933.745Q1256.42 936.605 1257.47 939.493Q1258.51 942.38 1259.49 945.292Q1260.46 948.204 1261.36 951.14Q1262.26 954.075 1263.09 957.032Q1263.92 959.989 1264.67 962.966Q1265.43 965.942 1266.11 968.937Q1266.79 971.931 1267.39 974.941Q1268 977.951 1268.53 980.976Q1269.06 984 1269.52 987.036Q1269.97 990.073 1270.35 993.12Q1270.73 996.167 1271.04 999.222Q1271.35 1002.27 1271.58 1005.32Q1271.81 1008.37 1271.96 1011.42Q1272.12 1014.48 1272.2 1017.54Q1272.28 1020.6 1272.28 1023.66Q1272.29 1026.72 1272.22 1029.78Q1272.15 1032.83 1272 1035.89Q1271.85 1038.95 1271.63 1042Q1271.41 1045.05 1271.11 1048.09Q1270.82 1051.14 1270.44 1054.18Q1270.07 1057.21 1269.62 1060.24Q1269.18 1063.27 1268.66 1066.28Q1268.13 1069.3 1267.54 1072.3Q1266.94 1075.3 1266.27 1078.28Q1265.6 1081.27 1264.86 1084.24Q1264.11 1087.21 1263.3 1090.15Q1262.48 1093.1 1261.59 1096.03Q1260.7 1098.96 1259.74 1101.86Q1258.78 1104.77 1257.75 1107.65Q1256.71 1110.53 1255.61 1113.38Q1254.51 1116.24 1253.33 1119.06Q1252.16 1121.89 1250.92 1124.68Q1249.67 1127.48 1248.36 1130.24Q1247.05 1133.01 1245.67 1135.74Q1244.29 1138.47 1242.84 1141.16Q1241.4 1143.86 1239.88 1146.52Q1238.37 1149.18 1236.79 1151.8Q1235.21 1154.42 1233.57 1157Q1231.93 1159.59 1230.22 1162.13Q1228.52 1164.67 1226.75 1167.16Q1224.98 1169.66 1223.15 1172.11Q1221.33 1174.57 1219.44 1176.97Q1217.55 1179.38 1215.6 1181.74C1172.59 1233.88 1111.8 1265 1044.76 1271.31L1042.97 1271.51C980.932 1278.01 914.256 1255.05 866.547 1215.8Q864.186 1213.86 861.873 1211.87Q859.56 1209.87 857.297 1207.82Q855.035 1205.77 852.823 1203.67Q850.611 1201.56 848.452 1199.4Q846.292 1197.24 844.187 1195.03Q842.081 1192.82 840.031 1190.55Q837.98 1188.29 835.986 1185.98Q833.992 1183.67 832.055 1181.3Q830.119 1178.94 828.241 1176.53Q826.363 1174.13 824.545 1171.67Q822.727 1169.22 820.969 1166.72Q819.212 1164.22 817.517 1161.68Q815.822 1159.14 814.19 1156.56Q812.558 1153.98 810.989 1151.36Q809.421 1148.74 807.918 1146.08Q806.415 1143.42 804.977 1140.73Q803.54 1138.03 802.169 1135.3Q800.799 1132.58 799.496 1129.81Q798.193 1127.05 796.958 1124.26Q795.723 1121.47 794.558 1118.64Q793.392 1115.82 792.296 1112.97Q791.201 1110.12 790.175 1107.24Q789.15 1104.37 788.196 1101.46Q787.242 1098.56 786.359 1095.64Q785.477 1092.72 784.666 1089.77Q783.856 1086.83 783.118 1083.86Q782.381 1080.9 781.716 1077.92Q781.052 1074.94 780.461 1071.94Q779.87 1068.95 779.353 1065.94Q778.836 1062.93 778.393 1059.9Q777.95 1056.88 777.582 1053.85Q777.214 1050.82 776.92 1047.78Q776.624 1044.73 776.404 1041.67Q776.184 1038.61 776.039 1035.55Q775.895 1032.49 775.826 1029.43Q775.757 1026.36 775.765 1023.3Q775.772 1020.23 775.855 1017.17Q775.938 1014.1 776.097 1011.04Q776.256 1007.98 776.49 1004.92Q776.725 1001.87 777.035 998.818Q777.345 995.769 777.731 992.728Q778.117 989.687 778.577 986.656Q779.038 983.626 779.574 980.608Q780.109 977.59 780.719 974.586Q781.329 971.582 782.014 968.594Q782.698 965.606 783.456 962.636Q784.214 959.666 785.045 956.716Q785.877 953.765 786.781 950.836Q787.685 947.907 788.661 945.002Q789.637 942.096 790.685 939.215Q791.733 936.335 792.852 933.481Q793.971 930.627 795.16 927.802Q796.349 924.977 797.608 922.182Q798.867 919.387 800.194 916.624Q801.522 913.861 802.917 911.132Q804.313 908.403 805.775 905.709Q807.238 903.015 808.767 900.359Q810.296 897.702 811.89 895.084Q813.484 892.465 815.142 889.888Q816.801 887.31 818.523 884.774Q820.244 882.238 822.028 879.745Q823.812 877.252 825.658 874.805Q827.503 872.357 829.408 869.956Q831.313 867.554 833.277 865.201C876.925 812.901 938.154 782.302 1005.72 776.421Z"/>
</svg>
