<?xml version="1.0" encoding="utf-8" ?>
<svg xmlns="http://www.w3.org/2000/svg" xmlns:xlink="http://www.w3.org/1999/xlink" width="192" height="192">
	<path fill="#FE9900" d="M0 0L192 0L192 0.21271L192 192L0.202574 192L0 192L0 0Z"/>
	<path fill="#FBFBFB" d="M92.6839 8.11193C114.95 6.93668 137.672 15.2901 154.274 30.052Q155.088 30.7715 155.884 31.5109Q156.68 32.2504 157.457 33.0092Q158.235 33.7681 158.993 34.5459Q159.752 35.3237 160.491 36.1201Q161.23 36.9164 161.949 37.7308Q162.668 38.5451 163.367 39.377Q164.065 40.2088 164.743 41.0577Q165.421 41.9066 166.078 42.772Q166.735 43.6373 167.37 44.5187Q168.005 45.4 168.619 46.2968Q169.232 47.1936 169.823 48.1052Q170.414 49.0168 170.982 49.9428Q171.55 50.8688 172.095 51.8085Q172.64 52.7482 173.162 53.7011Q173.684 54.654 174.182 55.6195Q174.68 56.585 175.154 57.5625Q175.628 58.54 176.078 59.529Q176.528 60.5179 176.953 61.5176Q177.378 62.5174 177.779 63.5273Q178.179 64.5373 178.554 65.5568Q178.929 66.5763 179.279 67.6048Q179.629 68.6333 179.954 69.6701Q180.278 70.7069 180.577 71.7514Q180.876 72.796 181.149 73.8475Q181.421 74.8991 181.668 75.9571Q181.915 77.0151 182.136 78.0789Q182.356 79.1427 182.55 80.2116Q182.745 81.2805 182.912 82.3539Q183.08 83.4272 183.221 84.5044Q183.362 85.5816 183.477 86.662Q183.591 87.7423 183.679 88.8252Q183.767 89.908 183.828 90.9927Q183.89 92.0668 183.926 93.1421Q183.961 94.2173 183.971 95.2932Q183.98 96.369 183.963 97.4447Q183.946 98.5205 183.903 99.5954Q183.859 100.67 183.79 101.744Q183.72 102.818 183.624 103.889Q183.528 104.961 183.406 106.03Q183.284 107.099 183.136 108.164Q182.987 109.23 182.813 110.292Q182.639 111.353 182.439 112.41Q182.238 113.467 182.012 114.519Q181.786 115.571 181.534 116.617Q181.283 117.663 181.005 118.702Q180.728 119.742 180.425 120.774Q180.123 121.807 179.795 122.832Q179.467 123.856 179.114 124.873Q178.761 125.889 178.384 126.896Q178.006 127.904 177.604 128.902Q177.202 129.9 176.775 130.887Q176.349 131.875 175.898 132.852Q175.448 133.829 174.973 134.795Q174.499 135.76 174.001 136.714Q173.503 137.668 172.982 138.609Q172.461 139.55 171.917 140.479Q171.373 141.407 170.807 142.321Q170.24 143.236 169.651 144.137Q169.063 145.037 168.452 145.923Q167.842 146.809 167.209 147.679Q166.577 148.55 165.924 149.405Q165.271 150.26 164.597 151.098Q163.923 151.937 163.229 152.759Q162.534 153.58 161.82 154.385C145.628 172.565 123.722 182.492 99.5618 183.893Q99.2694 183.914 98.9766 183.929C76.7794 185.115 53.7631 176.369 37.3405 161.565Q36.5338 160.844 35.7452 160.104Q34.9566 159.364 34.1864 158.604Q33.4162 157.845 32.665 157.066Q31.9138 156.288 31.1821 155.492Q30.4503 154.695 29.7383 153.881Q29.0264 153.066 28.3348 152.235Q27.6431 151.403 26.9722 150.555Q26.3013 149.706 25.6515 148.841Q25.0017 147.977 24.3734 147.096Q23.7451 146.216 23.1387 145.32Q22.5323 144.424 21.9482 143.514Q21.3641 142.604 20.8025 141.679Q20.241 140.755 19.7025 139.816Q19.1639 138.878 18.6487 137.927Q18.1334 136.976 17.6418 136.013Q17.1501 135.049 16.6824 134.074Q16.2146 133.099 15.771 132.112Q15.3275 131.126 14.9083 130.128Q14.4892 129.131 14.0948 128.124Q13.7004 127.117 13.3309 126.1Q12.9615 125.084 12.6172 124.058Q12.2729 123.033 11.954 121.999Q11.6351 120.966 11.3418 119.924Q11.0485 118.883 10.7809 117.835Q10.5133 116.787 10.2717 115.733Q10.03 114.679 9.81441 113.619Q9.59882 112.559 9.40943 111.494Q9.22003 110.429 9.05695 109.359Q8.89387 108.29 8.75719 107.217Q8.62052 106.144 8.51034 105.068Q8.40016 103.992 8.31653 102.914Q8.23291 101.835 8.1759 100.755Q8.11525 99.6718 8.08144 98.5874Q8.04763 97.503 8.04068 96.4181Q8.03374 95.3332 8.05366 94.2485Q8.07359 93.1637 8.12037 92.0798Q8.16715 90.9959 8.24076 89.9135Q8.31437 88.831 8.41477 87.7508Q8.51516 86.6705 8.64227 85.593Q8.76939 84.5156 8.92315 83.4416Q9.07691 82.3677 9.25721 81.2978Q9.43752 80.228 9.64427 79.1629Q9.85101 78.0979 10.0841 77.0383Q10.3171 75.9787 10.5764 74.9252Q10.8356 73.8717 11.1208 72.825Q11.4061 71.7782 11.7171 70.7388Q12.0282 69.6995 12.3649 68.6681Q12.7016 67.6368 13.0638 66.6141Q13.4259 65.5914 13.8133 64.578Q14.2007 63.5646 14.613 62.5611Q15.0254 61.5575 15.4624 60.5646Q15.8995 59.5716 16.361 58.5897Q16.8226 57.6079 17.3083 56.6377Q17.794 55.6676 18.3036 54.7098Q18.8131 53.752 19.3463 52.8071Q19.8794 51.8622 20.4358 50.9308Q20.9922 49.9994 21.5714 49.0821Q22.1507 48.1647 22.7525 47.262Q23.3543 46.3593 23.9783 45.4718Q24.6023 44.5843 25.2481 43.7125Q25.8938 42.8407 26.561 41.9851Q27.2282 41.1296 27.9163 40.2908Q28.6045 39.4521 29.3132 38.6306Q30.0219 37.8092 30.7507 37.0055C46.8388 19.2121 68.8399 9.29911 92.6839 8.11193Z"/>
	<path fill="#5E5C5D" d="M41.4629 39.1771C43.7962 40.6708 45.9869 43.4432 47.9299 45.4468L45.5343 47.8109C43.2764 45.9432 41.2415 43.6757 39.1692 41.6C40.036 40.8637 40.738 40.0491 41.4629 39.1771Z"/>
	<path fill="#5E5C5D" d="M45.6518 143.907C46.6898 143.988 47.7638 145.404 48.4613 146.11L41.6927 152.72C41.0873 152.549 39.696 151.003 39.1271 150.51L45.6518 143.907Z"/>
	<path fill="#5E5C5D" d="M146.041 143.895C147.247 144.13 151.791 149.246 152.985 150.46L150.668 152.688C149.953 152.629 144.774 147.152 143.755 146.164L146.041 143.895Z"/>
	<path fill="#5E5C5D" d="M16.5282 94.2474L26.506 94.2737L26.5283 97.7403L16.4845 97.764L16.5282 94.2474Z"/>
	<path fill="#5E5C5D" d="M94.3693 165.03L97.8296 165.017L97.8501 175.64L94.3201 175.737L94.3693 165.03Z"/>
	<path fill="#EC3F3F" d="M140.556 44.6171C143.231 44.0827 145.924 43.7399 148.628 43.3941C148.279 45.7589 148.264 49.4921 147.089 51.497C145.519 54.1765 133.692 65.2146 130.792 68.1107L115.97 82.9319C113.341 85.5605 110.759 88.3346 108.001 90.8243C105.659 91.442 96.9839 91.1617 94.2971 90.819Q97.7316 87.431 101.05 83.9293C104.492 81.0666 107.632 77.4718 110.805 74.3003L130.378 54.6985C133.734 51.3257 137.034 47.8133 140.556 44.6171Z"/>
	<path fill="#2B5EFE" d="M91.078 27.078C92.5458 24.5949 94.3353 22.2498 95.9919 19.887C96.9267 21.3125 98.0262 22.6485 99.0638 24.001C99.6305 24.8848 100.651 26.1729 100.846 27.1858C101.526 30.7227 101.009 39.9738 101.003 44.0511C100.981 57.3396 100.897 70.6421 101.05 83.9293Q97.7315 87.431 94.2971 90.819C93.1926 90.9576 92.1267 91.0727 91.0108 91.0566C91.3942 69.7426 90.7052 48.3958 91.078 27.078Z"/>
	<path fill="#FED319" d="M108.001 90.8243C113.089 91.2474 118.346 90.9866 123.456 90.9873L151.221 90.9863C154.813 90.9855 161.52 90.451 164.754 91.314C167.396 92.0189 170.026 94.4123 172.232 96.0077C170.068 97.5559 167.242 100.185 164.656 100.778C161.008 101.614 151.094 101.029 146.923 101.022L110.812 101.051C104.272 101.056 97.5492 100.72 91.0367 101.195C91.0088 97.8171 90.9421 94.4338 91.0108 91.0566C92.1267 91.0727 93.1926 90.9576 94.2971 90.819C96.9839 91.1617 105.659 91.442 108.001 90.8243Z"/>
</svg>
