<?xml version="1.0" encoding="utf-8" ?>
<svg xmlns="http://www.w3.org/2000/svg" xmlns:xlink="http://www.w3.org/1999/xlink" width="880" height="880">
	<path fill="#F69436" d="M236.506 64.2502C238.874 64.1226 241.261 64.0841 243.632 64.0671L503.41 64.2999L592.475 64.2227C626.083 64.1891 659.066 63.0262 692.008 70.8994C720.946 77.8155 750.024 94.538 771.114 115.436C790.742 134.884 805.892 161.374 812.258 188.245C817.261 209.361 816.196 229.907 816.23 251.403L816.228 310.594L816.192 502.535L816.039 601.864L815.953 640.574C815.938 648.132 816.25 655.871 815.636 663.4Q815.491 665.096 815.31 666.788Q815.128 668.48 814.91 670.168Q814.692 671.855 814.438 673.538Q814.183 675.221 813.893 676.897Q813.602 678.574 813.276 680.244Q812.949 681.914 812.586 683.577Q812.223 685.24 811.825 686.894Q811.426 688.549 810.992 690.194Q810.558 691.84 810.088 693.475Q809.619 695.111 809.114 696.736Q808.609 698.362 808.069 699.975Q807.53 701.589 806.955 703.191Q806.381 704.793 805.772 706.382Q805.163 707.971 804.52 709.547Q803.877 711.123 803.2 712.684Q802.523 714.245 801.812 715.792Q801.102 717.338 800.358 718.869Q799.615 720.399 798.838 721.914Q798.062 723.428 797.252 724.925Q796.443 726.422 795.602 727.902Q794.761 729.381 793.888 730.842Q793.015 732.303 792.111 733.744Q791.206 735.186 790.271 736.608Q789.336 738.03 788.37 739.431Q787.405 740.832 786.409 742.212Q785.413 743.592 784.388 744.951Q783.363 746.309 782.309 747.645Q781.254 748.98 780.171 750.293Q779.089 751.606 777.978 752.895Q776.867 754.184 775.728 755.449Q774.589 756.714 773.424 757.954Q772.258 759.194 771.066 760.408C766.951 764.541 762.823 768.823 758.393 772.609Q755.962 774.686 753.454 776.67Q750.947 778.654 748.366 780.542Q745.786 782.43 743.136 784.219Q740.486 786.009 737.77 787.697Q735.055 789.385 732.278 790.97Q729.501 792.555 726.666 794.034Q723.831 795.513 720.943 796.885Q718.054 798.256 715.116 799.517Q712.178 800.779 709.194 801.929Q706.211 803.079 703.186 804.115Q700.161 805.152 697.099 806.074Q694.038 806.996 690.943 807.802Q687.849 808.608 684.727 809.296Q681.604 809.985 678.458 810.556Q675.312 811.126 672.147 811.578Q668.981 812.03 665.801 812.362C657.012 813.194 647.983 812.888 639.158 812.915L312.85 813.087L249.605 813.049C232.021 813.045 214.083 813.901 196.778 810.275Q193.791 809.665 190.828 808.947Q187.865 808.23 184.93 807.406Q181.995 806.582 179.092 805.652Q176.188 804.723 173.32 803.689Q170.452 802.656 167.623 801.52Q164.794 800.383 162.008 799.146Q159.222 797.908 156.483 796.571Q153.743 795.234 151.053 793.799Q148.364 792.364 145.728 790.832Q143.092 789.301 140.513 787.676Q137.933 786.05 135.415 784.333Q132.896 782.616 130.441 780.809Q127.985 779.001 125.597 777.107Q123.208 775.213 120.89 773.233Q118.571 771.254 116.326 769.192Q114.08 767.13 111.91 764.989C78.4021 732.545 61.1564 689.414 60.5295 642.966C60.0516 607.55 60.3115 572.1 60.2769 536.68L60.0944 348.796L60.1167 261.593C60.1592 242.133 58.7176 221.652 62.3892 202.478C68.2924 171.649 81.9686 140.936 104.069 118.228C141.108 80.1726 183.92 65.0167 236.506 64.2502Z"/>
	<path fill="#F0964D" d="M485.428 623.868C489.596 624.043 493.655 624.425 497.721 623.32C497.03 624.577 496.278 625.225 494.92 625.649C491.57 626.693 488.359 625.41 485.428 623.868Z"/>
	<path fill="#D6D6DB" d="M557.292 370.203C566.414 372.772 574.201 376.008 580.974 382.82L578.798 383.447C572.551 377.057 562.235 372.756 553.522 371.395C554.932 371.212 556.001 370.783 557.292 370.203Z"/>
	<path fill="#F0964D" d="M167.051 446.269C167.752 448.846 167.3 452.683 168.484 454.858L169.308 454.086C168.884 459.502 167.251 464.944 166.134 470.257C164.766 476.768 163.886 483.405 162.387 489.883C161.702 492.845 160.563 495.592 159.768 498.507C159.731 486.661 163.506 474.412 165.101 462.663C166.433 457.355 166.644 451.71 167.051 446.269Z"/>
	<path fill="#636368" d="M498.449 223.645Q501.831 222.83 505.237 222.126C504.191 223.273 503.126 224.458 501.9 225.418C497.202 229.099 491.343 232.039 486.214 235.12C480.64 238.468 474.796 242.611 468.85 245.221C467.556 244.962 465.765 245.759 464.685 246.457C464.546 246.547 464.42 246.658 464.287 246.759L464.483 246.103L464.009 246.763C464.248 246.179 464.455 245.66 464.819 245.141C465.233 244.552 465.045 244.886 465.42 244.145C465.501 243.985 465.577 243.822 465.655 243.66C466.937 242.341 469.654 241.192 471.278 240.254C477.972 236.389 493.528 228.943 498.53 224.519L498.449 223.645Z"/>
	<path fill="#76828E" d="M125.776 386.306L124.962 387.716C122.771 388.377 119.696 388.709 117.745 389.812Q107.199 392.681 96.5796 395.266C90.4843 396.916 76.0072 402.694 70.5634 402.341L69.8913 401.79C70.5622 399.282 74.0826 397.581 76.1309 396.259C77.8688 396.544 79.2549 396.485 80.9915 396.211C84.3802 396.893 95.8383 393.426 100.175 392.547C108.413 390.219 117.272 387.283 125.776 386.306Z"/>
	<path fill="#D6D6DB" d="M578.798 383.447L580.974 382.82C592.609 394.329 596.48 404.05 596.571 420.292Q596.855 440.25 595.123 460.135C594.909 462.744 595.091 466.101 594.401 468.603C593.915 459.041 593.884 449.36 593.897 439.783C593.913 428.103 595.377 414.88 591.716 403.698C589.165 395.902 584.353 389.371 578.798 383.447Z"/>
	<path fill="#D6D6DB" d="M584.957 304.592C609.434 305.003 638.16 317.243 655.164 334.873C668.259 348.452 679.327 370.505 682.222 389.254L681.379 389.132C680.044 388.062 673.181 368.046 671.574 364.238C668.553 357.083 664.704 351.717 659.94 345.665C647.139 329.404 633.177 318.136 613.111 312.025Q606.14 309.904 599.028 308.315C594.541 307.307 589.859 306.653 585.602 304.868L584.957 304.592Z"/>
	<path fill="#D6D6DB" d="M594.38 484.017C595.592 489.716 594.592 496.258 594.823 502.096C595.184 511.202 596.084 520.296 596.308 529.405C596.748 547.276 596.301 565.192 596.451 583.07C596.524 591.876 596.639 600.659 596.547 609.468C596.504 613.52 596.691 617.743 596.188 621.764C596.97 622.804 596.988 622.803 598.33 622.987C599.003 623.079 599.709 623.086 600.388 623.119C598.06 623.374 595.668 623.409 593.326 623.53C594.245 608.9 593.537 594.081 593.568 579.417Q593.361 531.711 594.38 484.017Z"/>
	<path fill="#FEFEFE" d="M139.132 384.747L157.74 379.939C159.695 379.439 162.087 379.276 163.91 378.577C164.617 378.306 165.3 378.062 166.022 377.826C172.618 396.426 172.335 416.522 170.79 435.972C170.323 441.863 169.193 448.211 169.308 454.086L168.484 454.858C167.3 452.683 167.752 448.846 167.051 446.269C166.644 451.71 166.433 457.355 165.101 462.663C163.506 474.412 159.731 486.661 159.768 498.507C159.337 500.101 159.077 501.668 158.856 503.303C159.188 505.882 157.409 510.258 156.822 512.918L156.567 512.879L156.526 507.375L156.232 507.29C155.528 510.846 155.956 515.224 154.703 518.563C154.441 516.678 151.817 502.73 151.342 502.125L150.561 502.316C147.393 519.7 144.791 537.261 139.915 554.287C139.794 554.033 139.602 553.802 139.552 553.526C139.218 551.675 140.77 545.477 141.099 543.273C142.222 535.75 142.814 528.136 143.516 520.564C141.336 523.285 142.009 533.812 140.256 534.86Q140.049 533.516 139.767 532.186L139.325 532.046C139.14 536.521 138.341 548.049 136.305 551.679C136.397 546.223 136.506 539.291 135.337 534.016C133.787 543.209 134.576 553.667 131.129 562.453C130.225 559.015 131.944 553.63 132.202 549.947Q133.226 534.651 132.775 519.328C131.316 522.391 132.197 526.458 131.275 529.85C130.077 521.406 130.166 512.206 130.127 503.666C129.475 497.815 129.857 490.872 128.365 485.248C127.498 490.06 127.928 495.856 127.839 500.759C127.615 512.998 127.629 524.675 126.064 536.841C125.695 539.707 125.707 542.868 124.579 545.534C123.688 543.537 125.151 524.854 125.054 520.879C124.875 513.593 124.57 506.123 123.681 498.892C122.607 490.156 120.951 481.478 120.198 472.707C119.003 463.123 117.635 453.52 116.319 443.949C115.497 437.973 114.33 431.914 114.221 425.874C114.127 420.684 114.739 415.618 115.331 410.481L114.904 410.57C114.066 415.631 113.262 420.725 112.746 425.829L112.197 425.787C112.254 414.263 113.765 400.67 117.745 389.812C119.696 388.709 122.771 388.377 124.962 387.716Q131.425 386.371 137.867 384.931L139.132 384.747Z"/>
	<path fill="#FBDFCA" d="M130.127 503.666L131.241 503.646C133.654 500.144 132.248 485.865 132.552 481.029Q132.982 493.41 133.02 505.798C133.064 509.97 133.635 515.272 132.775 519.328C131.316 522.391 132.197 526.458 131.275 529.85C130.077 521.406 130.166 512.206 130.127 503.666Z"/>
	<path fill="#D6D6DB" d="M153.186 413.244C153.779 418.083 152.372 423.694 152.141 428.609L149.835 473.99C149.488 481.716 150.101 489.743 148.774 497.37C146.751 493.391 150.591 450.434 150.982 442.645C151.25 437.298 150.965 431.922 151.37 426.585C151.699 422.26 152.061 417.43 153.186 413.244Z"/>
	<path fill="#D6D6DB" d="M156.152 384.077C156.222 384.164 156.307 384.241 156.36 384.339C158.911 389.019 156.982 444.659 156.474 453.643C156.25 457.604 155.76 461.499 155.282 465.433L155.001 465.527C153.994 460.96 155.787 448.666 155.968 443.259C156.238 435.146 155.905 427.003 156.052 418.886C156.148 413.615 156.712 408.361 156.844 403.093C157.004 396.764 156.172 390.416 156.152 384.077Z"/>
	<path fill="#D6D6DB" d="M137.867 384.931L139.132 384.747C138.524 392.099 136.951 399.337 136.367 406.662C135.838 413.292 136.281 420.013 136.416 426.651C136.564 433.971 136.494 441.254 136.872 448.575C137.036 451.752 138.335 463.013 136.499 465.031C135.701 462.193 136.478 457.685 136.325 454.598C135.187 431.611 132.799 407.593 137.867 384.931Z"/>
	<path fill="#D6D6DB" d="M159.544 481.047C159.083 479.379 159.131 476.289 159.38 474.56C160.035 469.997 161.584 465.68 162.111 461.005Q163.009 452.335 163.678 443.645C163.883 440.883 163.818 438.052 164.348 435.333C166.446 439.017 162.493 458.49 163.809 465.075L164.363 464.414C164.267 463.395 164.504 463.436 165.101 462.663C163.506 474.412 159.731 486.661 159.768 498.507C159.337 500.101 159.077 501.668 158.856 503.303C157.328 501.189 158.407 494.11 158.546 491.478L158.92 491.161C159.815 488.263 160.426 483.934 159.544 481.047Z"/>
	<path fill="#D6D6DB" d="M139.325 532.046C139.683 521.142 141.206 510.448 141.601 499.542C142.046 503.508 142.163 508.088 141.757 512.048C141.487 514.685 140.546 517.262 140.776 519.913L141.26 520.168C141.35 520.078 141.45 519.997 141.53 519.897C142.016 519.292 141.953 518.726 142.158 518.003C142.461 516.938 143.195 515.972 143.473 514.903C144.455 511.127 144.001 502.871 143.852 498.651C143.659 499.596 143.493 500.506 143.41 501.469L143.341 502.319L143.019 502.351C141.811 499.699 143.747 489.153 143.956 485.774C144.27 480.691 143.946 475.584 144.283 470.497Q146.533 436.72 151.718 403.268L151.883 403.536C152.346 412.157 149.963 421.115 148.865 429.685C147.255 442.246 145.955 455.829 145.313 468.445C145.013 474.336 144.801 517.861 143.748 520.179C143.686 520.316 143.593 520.436 143.516 520.564C141.336 523.285 142.009 533.812 140.256 534.86Q140.049 533.516 139.767 532.186L139.325 532.046Z"/>
	<path fill="#FBDFCA" d="M152.475 487.436Q153.162 480.698 154.096 473.989L154.717 474.258L154.674 473.301L154.171 473.19C154.228 472.868 154.365 472.565 154.475 472.258C154.441 472.474 154.409 472.69 154.372 472.906C153.659 477.012 153.301 484.559 155.043 488.373C157.003 486.781 157.155 480.211 157.692 477.652C157.993 481.147 157.759 484.614 157.477 488.104C158.541 487.392 159.206 482.548 159.544 481.047C160.426 483.934 159.815 488.263 158.92 491.161L158.546 491.478C158.407 494.11 157.328 501.189 158.856 503.303C159.188 505.882 157.409 510.258 156.822 512.918L156.567 512.879L156.526 507.375L156.232 507.29C155.528 510.846 155.956 515.224 154.703 518.563C154.441 516.678 151.817 502.73 151.342 502.125L150.561 502.316C150.776 499.112 151.774 495.868 152.073 492.63C152.045 490.887 152.284 489.166 152.475 487.436Z"/>
	<path fill="#F0964D" d="M152.073 492.63L152.731 490.882C153.691 492.507 152.452 505.602 152.817 508.999C153.987 504.357 153.518 497.297 155.912 493.333C155.751 496.363 155.649 499.278 155.942 502.302C157.113 498.96 156.888 494.467 158.546 491.478C158.407 494.11 157.328 501.189 158.856 503.303C159.188 505.882 157.409 510.258 156.822 512.918L156.567 512.879L156.526 507.375L156.232 507.29C155.528 510.846 155.956 515.224 154.703 518.563C154.441 516.678 151.817 502.73 151.342 502.125L150.561 502.316C150.776 499.112 151.774 495.868 152.073 492.63Z"/>
	<path fill="#FEFEFE" d="M310.188 409.671Q309.541 482.932 309.708 556.193C309.696 578.527 309.381 600.899 309.736 623.227Q262.947 622.672 216.162 623.469C216.825 588.369 216.256 553.189 216.222 518.078L216.003 440.474C215.974 430.97 216.274 421.447 216.122 411.949C246.271 422.105 280.127 417.886 310.188 409.671Z"/>
	<defs>
		<linearGradient id="gradient_0" gradientUnits="userSpaceOnUse" x1="346.66565" y1="366.29373" x2="238.58032" y2="252.03882">
			<stop offset="0" stop-color="#383838"/>
			<stop offset="1" stop-color="#7D7C7C"/>
		</linearGradient>
	</defs>
	<path fill="url(#gradient_0)" d="M191.941 313.424C201.528 304.31 213.751 296.896 224.606 289.319C236.92 280.723 250.866 269.044 264.638 263.436C279.027 257.577 303.655 253.948 319.646 250.912C344.682 246.158 369.927 241.6 395.133 237.864C429.514 232.769 464.052 228.668 498.449 223.645L498.53 224.519C493.528 228.943 477.972 236.389 471.278 240.254C469.654 241.192 466.937 242.341 465.655 243.66C465.577 243.822 465.501 243.985 465.42 244.145C465.045 244.886 465.233 244.552 464.819 245.141C464.455 245.66 464.248 246.179 464.009 246.763L464.483 246.103L464.287 246.759C464.42 246.658 464.546 246.547 464.685 246.457C465.765 245.759 467.556 244.962 468.85 245.221C465.383 248.352 450.755 255.808 445.628 258.833C433.321 266.095 421.291 273.747 408.892 280.871C404.672 283.295 400.116 286.503 395.582 288.218Q397.988 294.192 400.667 300.049C402.208 303.521 403.687 307.039 405.433 310.413C408.387 318.281 415.354 329.716 416.338 337.573C416.523 339.045 416.17 340.403 415.532 341.725C412.394 348.233 390.533 365.31 383.846 369.979C380.709 372.573 377.384 374.984 374.354 377.699C368.799 381.194 363.493 385.054 357.888 388.477Q348.733 394.016 339.032 398.532Q329.332 403.048 319.199 406.487C316.476 407.437 312.951 409.449 310.188 409.671C280.127 417.886 246.271 422.105 216.122 411.949Q215.571 411.592 215.025 411.227C213.772 410.389 212.437 409.559 211.514 408.343C206.712 402.018 204.859 385.728 203.245 377.67L201.213 367.999Q183.835 373.69 166.022 377.826C165.3 378.062 164.617 378.306 163.91 378.577C162.087 379.276 159.695 379.439 157.74 379.939L139.132 384.747L137.867 384.931Q131.425 386.371 124.962 387.716L125.776 386.306C117.272 387.283 108.413 390.219 100.175 392.547C95.8383 393.426 84.3802 396.893 80.9915 396.211C79.2549 396.485 77.8688 396.544 76.1309 396.259L110.47 370.314C115.568 366.441 121.041 362.781 125.823 358.543C126.236 357.62 126.72 356.72 127.208 355.836C141.467 330 165.315 321.158 191.941 313.424Z"/>
	<defs>
		<linearGradient id="gradient_1" gradientUnits="userSpaceOnUse" x1="237.96916" y1="350.75809" x2="175.34172" y2="297.73102">
			<stop offset="0" stop-color="#D0CFCE"/>
			<stop offset="1" stop-color="#FFFDFE"/>
		</linearGradient>
	</defs>
	<path fill="url(#gradient_1)" d="M191.941 313.424L192.377 313.343C201.76 311.518 212.67 307.92 222.166 305.526Q246.872 299.237 272.04 295.175C276.519 294.425 282.293 292.647 286.767 293.536L287.163 294.107C286.307 295.417 285.145 295.685 283.649 295.995C279.159 296.925 274.558 297.331 270.044 298.218C247.485 302.651 225 307.2 202.744 313C197.231 314.437 190.257 315.447 185.258 318.121C184.06 319.443 182.913 320.132 181.346 320.967C169.947 328.014 158.973 335.806 147.935 343.403C143.629 346.367 139.337 349.947 134.818 352.504C134.012 352.96 133.336 353.255 132.392 353.195C130.463 355.734 128.674 357.133 125.823 358.543C126.236 357.62 126.72 356.72 127.208 355.836C141.467 330 165.315 321.158 191.941 313.424Z"/>
	<path fill="#F0964D" d="M132.392 353.195Q133.223 351.677 134.163 350.224C144.789 334.066 166.529 321.83 185.258 318.121C184.06 319.443 182.913 320.132 181.346 320.967C169.947 328.014 158.973 335.806 147.935 343.403C143.629 346.367 139.337 349.947 134.818 352.504C134.012 352.96 133.336 353.255 132.392 353.195Z"/>
	<defs>
		<linearGradient id="gradient_2" gradientUnits="userSpaceOnUse" x1="294.52051" y1="307.49255" x2="306.15775" y2="339.16241">
			<stop offset="0" stop-color="#65666B"/>
			<stop offset="1" stop-color="#B3B1B0"/>
		</linearGradient>
	</defs>
	<path fill="url(#gradient_2)" d="M465.655 243.66C465.577 243.822 465.501 243.985 465.42 244.145C465.045 244.886 465.233 244.552 464.819 245.141C464.455 245.66 464.248 246.179 464.009 246.763L464.483 246.103L464.287 246.759C464.42 246.658 464.546 246.547 464.685 246.457C465.765 245.759 467.556 244.962 468.85 245.221C465.383 248.352 450.755 255.808 445.628 258.833C433.321 266.095 421.291 273.747 408.892 280.871C404.672 283.295 400.116 286.503 395.582 288.218C391.015 290.147 386.534 293.425 382.289 296.023Q368.927 304.074 355.777 312.467C345.272 319.135 334.399 325.162 323.881 331.786C320.512 333.729 317.114 335.855 313.514 337.338C308.432 339.432 302.911 340.563 297.596 341.951Q284.999 345.19 272.44 348.573C248.705 355.045 224.876 361.278 201.213 367.999Q183.835 373.69 166.022 377.826C165.3 378.062 164.617 378.306 163.91 378.577C162.087 379.276 159.695 379.439 157.74 379.939L139.132 384.747L137.867 384.931Q131.425 386.371 124.962 387.716L125.776 386.306C131.648 383.986 137.927 382.467 144.01 380.808Q157.548 377.173 171.046 373.388Q220.498 359.125 270.221 345.842Q280.901 342.952 291.625 340.227C298.363 338.537 305.228 337.068 311.735 334.593C319.224 331.744 326.253 326.787 333.16 322.708C349.134 313.272 364.844 303.463 380.667 293.785C408.711 276.631 437.468 260.595 465.655 243.66Z"/>
	<path fill="#8B8C8E" d="M181.346 320.967C183.378 325.525 192.837 326.76 192.871 332.408C189.044 333.708 185.607 335.38 181.897 336.882C171.991 340.891 161.717 345.033 152.701 350.841C141.892 357.805 131.987 366.159 121.627 373.759C116.284 377.678 110.276 380.631 105.077 384.708C104.845 385.445 104.64 386.163 104.481 386.918C96.6134 389.949 88.7869 392.992 80.9915 396.211C79.2549 396.485 77.8688 396.544 76.1309 396.259L110.47 370.314C115.568 366.441 121.041 362.781 125.823 358.543C128.674 357.133 130.463 355.734 132.392 353.195C133.336 353.255 134.012 352.96 134.818 352.504C139.337 349.947 143.629 346.367 147.935 343.403C158.973 335.806 169.947 328.014 181.346 320.967Z"/>
	<defs>
		<linearGradient id="gradient_3" gradientUnits="userSpaceOnUse" x1="378.1951" y1="385.62241" x2="221.49641" y2="329.53058">
			<stop offset="0" stop-color="#3E3D3E"/>
			<stop offset="1" stop-color="#858382"/>
		</linearGradient>
	</defs>
	<path fill="url(#gradient_3)" d="M323.881 331.786C334.399 325.162 345.272 319.135 355.777 312.467Q368.927 304.074 382.289 296.023C386.534 293.425 391.015 290.147 395.582 288.218Q397.988 294.192 400.667 300.049C402.208 303.521 403.687 307.039 405.433 310.413C408.387 318.281 415.354 329.716 416.338 337.573C416.523 339.045 416.17 340.403 415.532 341.725C412.394 348.233 390.533 365.31 383.846 369.979C380.709 372.573 377.384 374.984 374.354 377.699C368.799 381.194 363.493 385.054 357.888 388.477Q348.733 394.016 339.032 398.532Q329.332 403.048 319.199 406.487C316.476 407.437 312.951 409.449 310.188 409.671C280.127 417.886 246.271 422.105 216.122 411.949Q215.571 411.592 215.025 411.227C213.772 410.389 212.437 409.559 211.514 408.343C206.712 402.018 204.859 385.728 203.245 377.67L201.213 367.999C224.876 361.278 248.705 355.045 272.44 348.573Q284.999 345.19 297.596 341.951C302.911 340.563 308.432 339.432 313.514 337.338C317.114 335.855 320.512 333.729 323.881 331.786Z"/>
	<defs>
		<linearGradient id="gradient_4" gradientUnits="userSpaceOnUse" x1="330.40753" y1="356.85828" x2="202.39963" y2="353.17099">
			<stop offset="0" stop-color="#353434"/>
			<stop offset="1" stop-color="#686666"/>
		</linearGradient>
	</defs>
	<path fill="url(#gradient_4)" d="M201.213 367.999C224.876 361.278 248.705 355.045 272.44 348.573Q284.999 345.19 297.596 341.951C302.911 340.563 308.432 339.432 313.514 337.338C317.114 335.855 320.512 333.729 323.881 331.786L323.176 333.474C325.155 337.432 329.619 338.051 331.774 341.734C317.44 350.18 297.095 353.255 280.874 357.655C255.128 364.639 229.322 372.006 203.245 377.67L201.213 367.999Z"/>
	<path fill="#3B3A3A" d="M323.881 331.786C334.399 325.162 345.272 319.135 355.777 312.467Q368.927 304.074 382.289 296.023C386.534 293.425 391.015 290.147 395.582 288.218Q397.988 294.192 400.667 300.049C402.208 303.521 403.687 307.039 405.433 310.413C408.387 318.281 415.354 329.716 416.338 337.573C416.523 339.045 416.17 340.403 415.532 341.725C412.394 348.233 390.533 365.31 383.846 369.979C384.161 369.262 384.463 368.805 384.417 368.009C383.539 368.098 382.533 368.279 381.656 368.22C380.378 368.134 380.306 367.894 379.596 366.943C378.441 361.054 383.821 349.626 385.592 343.8C387.554 337.346 393.316 311.306 390.476 305.957C381.274 311.794 371.751 317.173 362.418 322.804C352.136 329.008 342.021 335.475 331.774 341.734C329.619 338.051 325.155 337.432 323.176 333.474L323.881 331.786Z"/>
	<path fill="#FEFEFE" d="M550.194 305.019Q558.854 304.067 567.565 303.96Q576.276 303.853 584.957 304.592L585.602 304.868C589.859 306.653 594.541 307.307 599.028 308.315Q606.14 309.904 613.111 312.025C633.177 318.136 647.139 329.404 659.94 345.665C664.704 351.717 668.553 357.083 671.574 364.238C673.181 368.046 680.044 388.062 681.379 389.132L682.222 389.254C685.67 408.151 685.783 423.928 685.9 443.065Q686.143 463.426 685.972 483.788L685.78 580.532C685.741 594.236 685.258 607.997 685.415 621.688L685.13 622.828C683.08 623.606 608.873 623.703 600.388 623.119C599.709 623.086 599.003 623.079 598.33 622.987C596.988 622.803 596.97 622.804 596.188 621.764C596.691 617.743 596.504 613.52 596.547 609.468C596.639 600.659 596.524 591.876 596.451 583.07C596.301 565.192 596.748 547.276 596.308 529.405C596.084 520.296 595.184 511.202 594.823 502.096C594.592 496.258 595.592 489.716 594.38 484.017L594.401 468.603C595.091 466.101 594.909 462.744 595.123 460.135Q596.855 440.25 596.571 420.292C596.48 404.05 592.609 394.329 580.974 382.82C574.201 376.008 566.414 372.772 557.292 370.203C556.001 370.783 554.932 371.212 553.522 371.395C538.301 370.088 525.748 373.085 513.888 383.115C503.519 391.884 498.801 403.439 497.719 416.775C496.805 428.034 497.359 439.772 497.417 451.08C497.87 483.553 497.193 516.083 497.075 548.562C497.309 566.577 497.994 584.663 497.611 602.675C498.296 608.969 498.67 617.096 497.721 623.32C493.655 624.425 489.596 624.043 485.428 623.868C470.498 622.805 455.188 623.379 440.213 623.342C434.934 623.329 428.549 624.002 423.393 623.081Q412.596 622.967 401.802 623.256C402.424 607.525 401.938 591.697 401.929 575.952L401.926 494.605L401.857 443.389C401.865 433.894 402.421 423.981 401.63 414.542C401.182 409.206 399.821 404.466 397.573 399.609C392.581 388.82 385.521 381.798 374.354 377.699C377.384 374.984 380.709 372.573 383.846 369.979C390.533 365.31 412.394 348.233 415.532 341.725C416.17 340.403 416.523 339.045 416.338 337.573C415.354 329.716 408.387 318.281 405.433 310.413C411.157 311.616 416.93 312.534 422.663 313.676L426.14 314.611C432.138 316.218 437.438 318.415 442.867 321.424C443.605 321.334 444.221 321.207 444.958 321.342C445.047 321.43 445.135 321.519 445.226 321.605C448.096 324.305 452.062 325.573 454.954 328.219C459.321 332.215 462.382 337.926 466.177 342.496C467.134 342.886 467.333 343.109 468.387 342.952C470.158 341.301 471.342 339.317 472.823 337.431C475.607 333.887 478.853 331.094 482.546 328.549C486.91 325.014 499.982 317.481 505.371 317.304C508.966 316.363 512.738 314.151 516.263 312.777C526.782 308.674 538.828 305.174 550.194 305.019Z"/>
	<path fill="#D6D6DB" d="M596.188 621.764C602.695 620.153 679.344 619.88 684.477 621.433C684.787 621.527 685.102 621.602 685.415 621.688L685.13 622.828C683.08 623.606 608.873 623.703 600.388 623.119C599.709 623.086 599.003 623.079 598.33 622.987C596.988 622.803 596.97 622.804 596.188 621.764Z"/>
	<path fill="#D6D6DB" d="M495.002 620.476C495.01 607.054 494.693 593.55 495.099 580.137C495.283 574.084 496.089 568.131 496.514 562.105C496.831 557.598 496.752 553.073 497.075 548.562C497.309 566.577 497.994 584.663 497.611 602.675C498.296 608.969 498.67 617.096 497.721 623.32C493.655 624.425 489.596 624.043 485.428 623.868C470.498 622.805 455.188 623.379 440.213 623.342C434.934 623.329 428.549 624.002 423.393 623.081C428.091 622.208 433.952 622.864 438.776 622.882C449.456 622.923 460.058 623.1 470.703 622.372C473.553 622.177 476.604 623.12 479.256 621.732C477.14 621.014 471.841 621.84 469.072 621.603C477.468 620.55 486.542 620.279 495.002 620.476Z"/>
	<defs>
		<linearGradient id="gradient_5" gradientUnits="userSpaceOnUse" x1="510.73056" y1="381.69034" x2="533.29321" y2="398.95792">
			<stop offset="0" stop-color="#D7D4D8"/>
			<stop offset="1" stop-color="#F3FAFF"/>
		</linearGradient>
	</defs>
	<path fill="url(#gradient_5)" d="M497.417 451.08C497.164 451.02 497.004 450.762 496.81 450.59C495.165 443.269 494.856 412.781 496.751 405.821C500.751 391.127 509.81 381.448 522.992 374.073C532.005 369.03 547.371 367.328 557.292 370.203C556.001 370.783 554.932 371.212 553.522 371.395C538.301 370.088 525.748 373.085 513.888 383.115C503.519 391.884 498.801 403.439 497.719 416.775C496.805 428.034 497.359 439.772 497.417 451.08Z"/>
	<path fill="#D6D6DB" d="M505.371 317.304C508.966 316.363 512.738 314.151 516.263 312.777C526.782 308.674 538.828 305.174 550.194 305.019C542.63 308.23 534.117 309.755 526.232 312.122C506.449 318.061 487.92 327.718 473.503 342.764C470.555 345.841 468.241 349.41 465.447 352.607C459.394 338.433 449.177 326.862 435.167 320.09C433.279 319.178 428.258 317.768 427.006 316.285C426.645 315.857 426.338 315.135 426.14 314.611C432.138 316.218 437.438 318.415 442.867 321.424C443.605 321.334 444.221 321.207 444.958 321.342C445.047 321.43 445.135 321.519 445.226 321.605C448.096 324.305 452.062 325.573 454.954 328.219C459.321 332.215 462.382 337.926 466.177 342.496C467.134 342.886 467.333 343.109 468.387 342.952C470.158 341.301 471.342 339.317 472.823 337.431C475.607 333.887 478.853 331.094 482.546 328.549C486.91 325.014 499.982 317.481 505.371 317.304Z"/>
	<path fill="#F0964D" d="M482.546 328.549C486.91 325.014 499.982 317.481 505.371 317.304C497.056 321.653 489.443 326.31 481.759 331.694C477.511 335.632 473.227 339.511 469.344 343.818L465.897 348.339C465.232 346.794 464.598 345.25 463.747 343.795C457.997 334.74 451.678 327.602 442.867 321.424C443.605 321.334 444.221 321.207 444.958 321.342C445.047 321.43 445.135 321.519 445.226 321.605C448.096 324.305 452.062 325.573 454.954 328.219C459.321 332.215 462.382 337.926 466.177 342.496C467.134 342.886 467.333 343.109 468.387 342.952C470.158 341.301 471.342 339.317 472.823 337.431C475.607 333.887 478.853 331.094 482.546 328.549Z"/>
</svg>
